<?xml version="1.0" encoding="UTF-8" standalone="no"?>
<!DOCTYPE svg PUBLIC "-//W3C//DTD SVG 1.1//EN"
 "http://www.w3.org/Graphics/SVG/1.1/DTD/svg11.dtd">
<!-- Generated by graphviz version 3.0.0 (20220226.1711)
 -->
<!-- Title: Doddle Pages: 1 -->
<svg width="870pt" height="294pt"
 viewBox="0.00 0.00 1044.00 353.00" xmlns="http://www.w3.org/2000/svg" xmlns:xlink="http://www.w3.org/1999/xlink">
<g id="graph0" class="graph" transform="scale(0.833333 0.833333) rotate(0) translate(4 349)">
<title>Doddle</title>
<polygon fill="white" stroke="transparent" points="-4,4 -4,-349 1040,-349 1040,4 -4,4"/>
<text text-anchor="middle" x="518" y="-7.8" font-family="Courier New" font-size="14.00">Made with &lt;3 using Doddle (https://pypi.org/project/doddle)</text>
<!-- g1 -->
<g id="node1" class="node">
<title>g1</title>
<text text-anchor="middle" x="29" y="-161.3" font-family="Courier New" font-size="14.00">CRATE</text>
</g>
<!-- 00100 -->
<g id="node2" class="node">
<title>00100</title>
<polygon fill="#787c7e" stroke="transparent" points="104,-276 104,-298 126,-298 126,-276 104,-276"/>
<text text-anchor="start" x="109.5" y="-283.3" font-family="Helvetica,sans-Serif" font-size="14.00" fill="white">C</text>
<polygon fill="#787c7e" stroke="transparent" points="128,-276 128,-298 150,-298 150,-276 128,-276"/>
<text text-anchor="start" x="133.5" y="-283.3" font-family="Helvetica,sans-Serif" font-size="14.00" fill="white">R</text>
<polygon fill="#c9b458" stroke="transparent" points="152,-276 152,-298 174,-298 174,-276 152,-276"/>
<text text-anchor="start" x="158" y="-283.3" font-family="Helvetica,sans-Serif" font-size="14.00" fill="white">A</text>
<polygon fill="#787c7e" stroke="transparent" points="176,-276 176,-298 198,-298 198,-276 176,-276"/>
<text text-anchor="start" x="182" y="-283.3" font-family="Helvetica,sans-Serif" font-size="14.00" fill="white">T</text>
<polygon fill="#787c7e" stroke="transparent" points="200,-276 200,-298 222,-298 222,-276 200,-276"/>
<text text-anchor="start" x="206" y="-283.3" font-family="Helvetica,sans-Serif" font-size="14.00" fill="white">E</text>
</g>
<!-- g1&#45;&gt;00100 -->
<g id="edge1" class="edge">
<title>g1&#45;&gt;00100</title>
<path fill="none" stroke="cadetblue" d="M41.62,-183.29C53.36,-200.81 72.75,-227.28 94,-246 101.22,-252.36 109.55,-258.3 117.85,-263.57"/>
<polygon fill="cadetblue" stroke="cadetblue" points="126.45,-268.82 115.57,-267.45 122.18,-266.21 117.92,-263.61 117.92,-263.61 117.92,-263.61 122.18,-266.21 120.26,-259.77 126.45,-268.82 126.45,-268.82"/>
</g>
<!-- 00110 -->
<g id="node9" class="node">
<title>00110</title>
<polygon fill="#787c7e" stroke="transparent" points="104,-208 104,-230 126,-230 126,-208 104,-208"/>
<text text-anchor="start" x="109.5" y="-215.3" font-family="Helvetica,sans-Serif" font-size="14.00" fill="white">C</text>
<polygon fill="#787c7e" stroke="transparent" points="128,-208 128,-230 150,-230 150,-208 128,-208"/>
<text text-anchor="start" x="133.5" y="-215.3" font-family="Helvetica,sans-Serif" font-size="14.00" fill="white">R</text>
<polygon fill="#c9b458" stroke="transparent" points="152,-208 152,-230 174,-230 174,-208 152,-208"/>
<text text-anchor="start" x="158" y="-215.3" font-family="Helvetica,sans-Serif" font-size="14.00" fill="white">A</text>
<polygon fill="#c9b458" stroke="transparent" points="176,-208 176,-230 198,-230 198,-208 176,-208"/>
<text text-anchor="start" x="182" y="-215.3" font-family="Helvetica,sans-Serif" font-size="14.00" fill="white">T</text>
<polygon fill="#787c7e" stroke="transparent" points="200,-208 200,-230 222,-230 222,-208 200,-208"/>
<text text-anchor="start" x="206" y="-215.3" font-family="Helvetica,sans-Serif" font-size="14.00" fill="white">E</text>
</g>
<!-- g1&#45;&gt;00110 -->
<g id="edge8" class="edge">
<title>g1&#45;&gt;00110</title>
<path fill="none" stroke="cadetblue" d="M58.3,-177.09C69.41,-181.8 82.28,-187.2 94,-192 98.15,-193.7 102.44,-195.44 106.76,-197.18"/>
<polygon fill="cadetblue" stroke="cadetblue" points="116.22,-200.98 105.27,-201.43 111.58,-199.12 106.94,-197.25 106.94,-197.25 106.94,-197.25 111.58,-199.12 108.62,-193.08 116.22,-200.98 116.22,-200.98"/>
</g>
<!-- 00102 -->
<g id="node14" class="node">
<title>00102</title>
<polygon fill="#787c7e" stroke="transparent" points="104,-154 104,-176 126,-176 126,-154 104,-154"/>
<text text-anchor="start" x="109.5" y="-161.3" font-family="Helvetica,sans-Serif" font-size="14.00" fill="white">C</text>
<polygon fill="#787c7e" stroke="transparent" points="128,-154 128,-176 150,-176 150,-154 128,-154"/>
<text text-anchor="start" x="133.5" y="-161.3" font-family="Helvetica,sans-Serif" font-size="14.00" fill="white">R</text>
<polygon fill="#c9b458" stroke="transparent" points="152,-154 152,-176 174,-176 174,-154 152,-154"/>
<text text-anchor="start" x="158" y="-161.3" font-family="Helvetica,sans-Serif" font-size="14.00" fill="white">A</text>
<polygon fill="#787c7e" stroke="transparent" points="176,-154 176,-176 198,-176 198,-154 176,-154"/>
<text text-anchor="start" x="182" y="-161.3" font-family="Helvetica,sans-Serif" font-size="14.00" fill="white">T</text>
<polygon fill="#6aaa64" stroke="transparent" points="200,-154 200,-176 222,-176 222,-154 200,-154"/>
<text text-anchor="start" x="206" y="-161.3" font-family="Helvetica,sans-Serif" font-size="14.00" fill="white">E</text>
</g>
<!-- g1&#45;&gt;00102 -->
<g id="edge13" class="edge">
<title>g1&#45;&gt;00102</title>
<path fill="none" stroke="cadetblue" d="M58.32,-165C65.97,-165 74.63,-165 83.62,-165"/>
<polygon fill="cadetblue" stroke="cadetblue" points="93.86,-165 83.86,-169.5 88.86,-165 83.86,-165 83.86,-165 83.86,-165 88.86,-165 83.86,-160.5 93.86,-165 93.86,-165"/>
</g>
<!-- 01102 -->
<g id="node26" class="node">
<title>01102</title>
<polygon fill="#787c7e" stroke="transparent" points="104,-100 104,-122 126,-122 126,-100 104,-100"/>
<text text-anchor="start" x="109.5" y="-107.3" font-family="Helvetica,sans-Serif" font-size="14.00" fill="white">C</text>
<polygon fill="#c9b458" stroke="transparent" points="128,-100 128,-122 150,-122 150,-100 128,-100"/>
<text text-anchor="start" x="133.5" y="-107.3" font-family="Helvetica,sans-Serif" font-size="14.00" fill="white">R</text>
<polygon fill="#c9b458" stroke="transparent" points="152,-100 152,-122 174,-122 174,-100 152,-100"/>
<text text-anchor="start" x="158" y="-107.3" font-family="Helvetica,sans-Serif" font-size="14.00" fill="white">A</text>
<polygon fill="#787c7e" stroke="transparent" points="176,-100 176,-122 198,-122 198,-100 176,-100"/>
<text text-anchor="start" x="182" y="-107.3" font-family="Helvetica,sans-Serif" font-size="14.00" fill="white">T</text>
<polygon fill="#6aaa64" stroke="transparent" points="200,-100 200,-122 222,-122 222,-100 200,-100"/>
<text text-anchor="start" x="206" y="-107.3" font-family="Helvetica,sans-Serif" font-size="14.00" fill="white">E</text>
</g>
<!-- g1&#45;&gt;01102 -->
<g id="edge25" class="edge">
<title>g1&#45;&gt;01102</title>
<path fill="none" stroke="cadetblue" d="M58.3,-152.91C69.41,-148.2 82.28,-142.8 94,-138 98.15,-136.3 102.44,-134.56 106.76,-132.82"/>
<polygon fill="cadetblue" stroke="cadetblue" points="116.22,-129.02 108.62,-136.92 111.58,-130.88 106.94,-132.75 106.94,-132.75 106.94,-132.75 111.58,-130.88 105.27,-128.57 116.22,-129.02 116.22,-129.02"/>
</g>
<!-- 01100 -->
<g id="node31" class="node">
<title>01100</title>
<polygon fill="#787c7e" stroke="transparent" points="104,-46 104,-68 126,-68 126,-46 104,-46"/>
<text text-anchor="start" x="109.5" y="-53.3" font-family="Helvetica,sans-Serif" font-size="14.00" fill="white">C</text>
<polygon fill="#c9b458" stroke="transparent" points="128,-46 128,-68 150,-68 150,-46 128,-46"/>
<text text-anchor="start" x="133.5" y="-53.3" font-family="Helvetica,sans-Serif" font-size="14.00" fill="white">R</text>
<polygon fill="#c9b458" stroke="transparent" points="152,-46 152,-68 174,-68 174,-46 152,-46"/>
<text text-anchor="start" x="158" y="-53.3" font-family="Helvetica,sans-Serif" font-size="14.00" fill="white">A</text>
<polygon fill="#787c7e" stroke="transparent" points="176,-46 176,-68 198,-68 198,-46 176,-46"/>
<text text-anchor="start" x="182" y="-53.3" font-family="Helvetica,sans-Serif" font-size="14.00" fill="white">T</text>
<polygon fill="#787c7e" stroke="transparent" points="200,-46 200,-68 222,-68 222,-46 200,-46"/>
<text text-anchor="start" x="206" y="-53.3" font-family="Helvetica,sans-Serif" font-size="14.00" fill="white">E</text>
</g>
<!-- g1&#45;&gt;01100 -->
<g id="edge30" class="edge">
<title>g1&#45;&gt;01100</title>
<path fill="none" stroke="cadetblue" d="M40.34,-146.93C51.51,-128.83 70.86,-101.23 94,-84 95.82,-82.64 97.72,-81.35 99.68,-80.1"/>
<polygon fill="cadetblue" stroke="cadetblue" points="108.56,-75.01 102.12,-83.89 104.22,-77.5 99.88,-79.99 99.88,-79.99 99.88,-79.99 104.22,-77.5 97.64,-76.08 108.56,-75.01 108.56,-75.01"/>
</g>
<!-- 00100&#45;g2 -->
<g id="node3" class="node">
<title>00100&#45;g2</title>
<text text-anchor="middle" x="297" y="-296.3" font-family="Courier New" font-size="14.00">SONLY</text>
</g>
<!-- 00100&#45;&gt;00100&#45;g2 -->
<g id="edge2" class="edge">
<title>00100&#45;&gt;00100&#45;g2</title>
<path fill="none" stroke="cadetblue" d="M232.32,-293.73C241.07,-294.59 249.76,-295.45 257.79,-296.24"/>
<polygon fill="cadetblue" stroke="cadetblue" points="267.9,-297.23 257.5,-300.73 262.92,-296.74 257.94,-296.25 257.94,-296.25 257.94,-296.25 262.92,-296.74 258.38,-291.77 267.9,-297.23 267.9,-297.23"/>
</g>
<!-- 00100&#45;00100 -->
<g id="node4" class="node">
<title>00100&#45;00100</title>
<polygon fill="#787c7e" stroke="transparent" points="372,-316 372,-338 394,-338 394,-316 372,-316"/>
<text text-anchor="start" x="378" y="-323.3" font-family="Helvetica,sans-Serif" font-size="14.00" fill="white">S</text>
<polygon fill="#787c7e" stroke="transparent" points="396,-316 396,-338 418,-338 418,-316 396,-316"/>
<text text-anchor="start" x="401" y="-323.3" font-family="Helvetica,sans-Serif" font-size="14.00" fill="white">O</text>
<polygon fill="#c9b458" stroke="transparent" points="420,-316 420,-338 442,-338 442,-316 420,-316"/>
<text text-anchor="start" x="426" y="-323.3" font-family="Helvetica,sans-Serif" font-size="14.00" fill="white">N</text>
<polygon fill="#787c7e" stroke="transparent" points="444,-316 444,-338 466,-338 466,-316 444,-316"/>
<text text-anchor="start" x="450.5" y="-323.3" font-family="Helvetica,sans-Serif" font-size="14.00" fill="white">L</text>
<polygon fill="#787c7e" stroke="transparent" points="468,-316 468,-338 490,-338 490,-316 468,-316"/>
<text text-anchor="start" x="474" y="-323.3" font-family="Helvetica,sans-Serif" font-size="14.00" fill="white">Y</text>
</g>
<!-- 00100&#45;g2&#45;&gt;00100&#45;00100 -->
<g id="edge3" class="edge">
<title>00100&#45;g2&#45;&gt;00100&#45;00100</title>
<path fill="none" stroke="cadetblue" d="M326.32,-305.79C334.05,-307.37 342.82,-309.17 351.91,-311.03"/>
<polygon fill="cadetblue" stroke="cadetblue" points="361.86,-313.06 351.16,-315.47 356.96,-312.06 352.06,-311.06 352.06,-311.06 352.06,-311.06 356.96,-312.06 352.96,-306.65 361.86,-313.06 361.86,-313.06"/>
</g>
<!-- 00100&#45;00100&#45;g3 -->
<g id="node5" class="node">
<title>00100&#45;00100&#45;g3</title>
<text text-anchor="middle" x="565" y="-323.3" font-family="Courier New" font-size="14.00">AGING</text>
</g>
<!-- 00100&#45;00100&#45;&gt;00100&#45;00100&#45;g3 -->
<g id="edge4" class="edge">
<title>00100&#45;00100&#45;&gt;00100&#45;00100&#45;g3</title>
<path fill="none" stroke="cadetblue" d="M500.32,-327C509.07,-327 517.76,-327 525.79,-327"/>
<polygon fill="cadetblue" stroke="cadetblue" points="535.9,-327 525.9,-331.5 530.9,-327 525.9,-327 525.9,-327 525.9,-327 530.9,-327 525.9,-322.5 535.9,-327 535.9,-327"/>
</g>
<!-- 00100&#45;00100&#45;20110 -->
<g id="node6" class="node">
<title>00100&#45;00100&#45;20110</title>
<polygon fill="#6aaa64" stroke="transparent" points="640,-316 640,-338 662,-338 662,-316 640,-316"/>
<text text-anchor="start" x="646" y="-323.3" font-family="Helvetica,sans-Serif" font-size="14.00" fill="white">A</text>
<polygon fill="#787c7e" stroke="transparent" points="664,-316 664,-338 686,-338 686,-316 664,-316"/>
<text text-anchor="start" x="669" y="-323.3" font-family="Helvetica,sans-Serif" font-size="14.00" fill="white">G</text>
<polygon fill="#c9b458" stroke="transparent" points="688,-316 688,-338 710,-338 710,-316 688,-316"/>
<text text-anchor="start" x="696.5" y="-323.3" font-family="Helvetica,sans-Serif" font-size="14.00" fill="white">I</text>
<polygon fill="#c9b458" stroke="transparent" points="712,-316 712,-338 734,-338 734,-316 712,-316"/>
<text text-anchor="start" x="718" y="-323.3" font-family="Helvetica,sans-Serif" font-size="14.00" fill="white">N</text>
<polygon fill="#787c7e" stroke="transparent" points="736,-316 736,-338 758,-338 758,-316 736,-316"/>
<text text-anchor="start" x="741" y="-323.3" font-family="Helvetica,sans-Serif" font-size="14.00" fill="white">G</text>
</g>
<!-- 00100&#45;00100&#45;g3&#45;&gt;00100&#45;00100&#45;20110 -->
<g id="edge5" class="edge">
<title>00100&#45;00100&#45;g3&#45;&gt;00100&#45;00100&#45;20110</title>
<path fill="none" stroke="cadetblue" d="M594.32,-327C601.97,-327 610.63,-327 619.62,-327"/>
<polygon fill="cadetblue" stroke="cadetblue" points="629.86,-327 619.86,-331.5 624.86,-327 619.86,-327 619.86,-327 619.86,-327 624.86,-327 619.86,-322.5 629.86,-327 629.86,-327"/>
</g>
<!-- 00100&#45;00100&#45;20110&#45;g4 -->
<g id="node7" class="node">
<title>00100&#45;00100&#45;20110&#45;g4</title>
<text text-anchor="middle" x="833" y="-323.3" font-family="Courier New" font-size="14.00">ADMIN</text>
</g>
<!-- 00100&#45;00100&#45;20110&#45;&gt;00100&#45;00100&#45;20110&#45;g4 -->
<g id="edge6" class="edge">
<title>00100&#45;00100&#45;20110&#45;&gt;00100&#45;00100&#45;20110&#45;g4</title>
<path fill="none" stroke="cadetblue" d="M768.32,-327C777.07,-327 785.76,-327 793.79,-327"/>
<polygon fill="cadetblue" stroke="cadetblue" points="803.9,-327 793.9,-331.5 798.9,-327 793.9,-327 793.9,-327 793.9,-327 798.9,-327 793.9,-322.5 803.9,-327 803.9,-327"/>
</g>
<!-- 00100&#45;00100&#45;20110&#45;22222 -->
<g id="node8" class="node">
<title>00100&#45;00100&#45;20110&#45;22222</title>
<polygon fill="#6aaa64" stroke="transparent" points="908,-316 908,-338 930,-338 930,-316 908,-316"/>
<text text-anchor="start" x="914" y="-323.3" font-family="Helvetica,sans-Serif" font-size="14.00" fill="white">A</text>
<polygon fill="#6aaa64" stroke="transparent" points="932,-316 932,-338 954,-338 954,-316 932,-316"/>
<text text-anchor="start" x="937.5" y="-323.3" font-family="Helvetica,sans-Serif" font-size="14.00" fill="white">D</text>
<polygon fill="#6aaa64" stroke="transparent" points="956,-316 956,-338 978,-338 978,-316 956,-316"/>
<text text-anchor="start" x="961" y="-323.3" font-family="Helvetica,sans-Serif" font-size="14.00" fill="white">M</text>
<polygon fill="#6aaa64" stroke="transparent" points="980,-316 980,-338 1002,-338 1002,-316 980,-316"/>
<text text-anchor="start" x="988.5" y="-323.3" font-family="Helvetica,sans-Serif" font-size="14.00" fill="white">I</text>
<polygon fill="#6aaa64" stroke="transparent" points="1004,-316 1004,-338 1026,-338 1026,-316 1004,-316"/>
<text text-anchor="start" x="1010" y="-323.3" font-family="Helvetica,sans-Serif" font-size="14.00" fill="white">N</text>
</g>
<!-- 00100&#45;00100&#45;20110&#45;g4&#45;&gt;00100&#45;00100&#45;20110&#45;22222 -->
<g id="edge7" class="edge">
<title>00100&#45;00100&#45;20110&#45;g4&#45;&gt;00100&#45;00100&#45;20110&#45;22222</title>
<path fill="none" stroke="cadetblue" d="M862.32,-327C869.97,-327 878.63,-327 887.62,-327"/>
<polygon fill="cadetblue" stroke="cadetblue" points="897.86,-327 887.86,-331.5 892.86,-327 887.86,-327 887.86,-327 887.86,-327 892.86,-327 887.86,-322.5 897.86,-327 897.86,-327"/>
</g>
<!-- 00110&#45;g2 -->
<g id="node10" class="node">
<title>00110&#45;g2</title>
<text text-anchor="middle" x="297" y="-215.3" font-family="Courier New" font-size="14.00">TALON</text>
</g>
<!-- 00110&#45;&gt;00110&#45;g2 -->
<g id="edge9" class="edge">
<title>00110&#45;&gt;00110&#45;g2</title>
<path fill="none" stroke="cadetblue" d="M232.32,-219C241.07,-219 249.76,-219 257.79,-219"/>
<polygon fill="cadetblue" stroke="cadetblue" points="267.9,-219 257.9,-223.5 262.9,-219 257.9,-219 257.9,-219 257.9,-219 262.9,-219 257.9,-214.5 267.9,-219 267.9,-219"/>
</g>
<!-- 00110&#45;11000 -->
<g id="node11" class="node">
<title>00110&#45;11000</title>
<polygon fill="#c9b458" stroke="transparent" points="372,-262 372,-284 394,-284 394,-262 372,-262"/>
<text text-anchor="start" x="378" y="-269.3" font-family="Helvetica,sans-Serif" font-size="14.00" fill="white">T</text>
<polygon fill="#c9b458" stroke="transparent" points="396,-262 396,-284 418,-284 418,-262 396,-262"/>
<text text-anchor="start" x="402" y="-269.3" font-family="Helvetica,sans-Serif" font-size="14.00" fill="white">A</text>
<polygon fill="#787c7e" stroke="transparent" points="420,-262 420,-284 442,-284 442,-262 420,-262"/>
<text text-anchor="start" x="426.5" y="-269.3" font-family="Helvetica,sans-Serif" font-size="14.00" fill="white">L</text>
<polygon fill="#787c7e" stroke="transparent" points="444,-262 444,-284 466,-284 466,-262 444,-262"/>
<text text-anchor="start" x="449" y="-269.3" font-family="Helvetica,sans-Serif" font-size="14.00" fill="white">O</text>
<polygon fill="#787c7e" stroke="transparent" points="468,-262 468,-284 490,-284 490,-262 468,-262"/>
<text text-anchor="start" x="474" y="-269.3" font-family="Helvetica,sans-Serif" font-size="14.00" fill="white">N</text>
</g>
<!-- 00110&#45;g2&#45;&gt;00110&#45;11000 -->
<g id="edge10" class="edge">
<title>00110&#45;g2&#45;&gt;00110&#45;11000</title>
<path fill="none" stroke="cadetblue" d="M326.3,-231.09C337.41,-235.8 350.28,-241.2 362,-246 366.15,-247.7 370.44,-249.44 374.76,-251.18"/>
<polygon fill="cadetblue" stroke="cadetblue" points="384.22,-254.98 373.27,-255.43 379.58,-253.12 374.94,-251.25 374.94,-251.25 374.94,-251.25 379.58,-253.12 376.62,-247.08 384.22,-254.98 384.22,-254.98"/>
</g>
<!-- 00110&#45;11010 -->
<g id="node21" class="node">
<title>00110&#45;11010</title>
<polygon fill="#c9b458" stroke="transparent" points="372,-208 372,-230 394,-230 394,-208 372,-208"/>
<text text-anchor="start" x="378" y="-215.3" font-family="Helvetica,sans-Serif" font-size="14.00" fill="white">T</text>
<polygon fill="#c9b458" stroke="transparent" points="396,-208 396,-230 418,-230 418,-208 396,-208"/>
<text text-anchor="start" x="402" y="-215.3" font-family="Helvetica,sans-Serif" font-size="14.00" fill="white">A</text>
<polygon fill="#787c7e" stroke="transparent" points="420,-208 420,-230 442,-230 442,-208 420,-208"/>
<text text-anchor="start" x="426.5" y="-215.3" font-family="Helvetica,sans-Serif" font-size="14.00" fill="white">L</text>
<polygon fill="#c9b458" stroke="transparent" points="444,-208 444,-230 466,-230 466,-208 444,-208"/>
<text text-anchor="start" x="449" y="-215.3" font-family="Helvetica,sans-Serif" font-size="14.00" fill="white">O</text>
<polygon fill="#787c7e" stroke="transparent" points="468,-208 468,-230 490,-230 490,-208 468,-208"/>
<text text-anchor="start" x="474" y="-215.3" font-family="Helvetica,sans-Serif" font-size="14.00" fill="white">N</text>
</g>
<!-- 00110&#45;g2&#45;&gt;00110&#45;11010 -->
<g id="edge20" class="edge">
<title>00110&#45;g2&#45;&gt;00110&#45;11010</title>
<path fill="none" stroke="cadetblue" d="M326.32,-219C333.97,-219 342.63,-219 351.62,-219"/>
<polygon fill="cadetblue" stroke="cadetblue" points="361.86,-219 351.86,-223.5 356.86,-219 351.86,-219 351.86,-219 351.86,-219 356.86,-219 351.86,-214.5 361.86,-219 361.86,-219"/>
</g>
<!-- 00110&#45;11000&#45;g3 -->
<g id="node12" class="node">
<title>00110&#45;11000&#45;g3</title>
<text text-anchor="middle" x="565" y="-269.3" font-family="Courier New" font-size="14.00">ADMIT</text>
</g>
<!-- 00110&#45;11000&#45;&gt;00110&#45;11000&#45;g3 -->
<g id="edge11" class="edge">
<title>00110&#45;11000&#45;&gt;00110&#45;11000&#45;g3</title>
<path fill="none" stroke="cadetblue" d="M500.32,-273C509.07,-273 517.76,-273 525.79,-273"/>
<polygon fill="cadetblue" stroke="cadetblue" points="535.9,-273 525.9,-277.5 530.9,-273 525.9,-273 525.9,-273 525.9,-273 530.9,-273 525.9,-268.5 535.9,-273 535.9,-273"/>
</g>
<!-- 00110&#45;11000&#45;22222 -->
<g id="node13" class="node">
<title>00110&#45;11000&#45;22222</title>
<polygon fill="#6aaa64" stroke="transparent" points="640,-262 640,-284 662,-284 662,-262 640,-262"/>
<text text-anchor="start" x="646" y="-269.3" font-family="Helvetica,sans-Serif" font-size="14.00" fill="white">A</text>
<polygon fill="#6aaa64" stroke="transparent" points="664,-262 664,-284 686,-284 686,-262 664,-262"/>
<text text-anchor="start" x="669.5" y="-269.3" font-family="Helvetica,sans-Serif" font-size="14.00" fill="white">D</text>
<polygon fill="#6aaa64" stroke="transparent" points="688,-262 688,-284 710,-284 710,-262 688,-262"/>
<text text-anchor="start" x="693" y="-269.3" font-family="Helvetica,sans-Serif" font-size="14.00" fill="white">M</text>
<polygon fill="#6aaa64" stroke="transparent" points="712,-262 712,-284 734,-284 734,-262 712,-262"/>
<text text-anchor="start" x="720.5" y="-269.3" font-family="Helvetica,sans-Serif" font-size="14.00" fill="white">I</text>
<polygon fill="#6aaa64" stroke="transparent" points="736,-262 736,-284 758,-284 758,-262 736,-262"/>
<text text-anchor="start" x="742" y="-269.3" font-family="Helvetica,sans-Serif" font-size="14.00" fill="white">T</text>
</g>
<!-- 00110&#45;11000&#45;g3&#45;&gt;00110&#45;11000&#45;22222 -->
<g id="edge12" class="edge">
<title>00110&#45;11000&#45;g3&#45;&gt;00110&#45;11000&#45;22222</title>
<path fill="none" stroke="cadetblue" d="M594.32,-273C601.97,-273 610.63,-273 619.62,-273"/>
<polygon fill="cadetblue" stroke="cadetblue" points="629.86,-273 619.86,-277.5 624.86,-273 619.86,-273 619.86,-273 619.86,-273 624.86,-273 619.86,-268.5 629.86,-273 629.86,-273"/>
</g>
<!-- 00102&#45;g2 -->
<g id="node15" class="node">
<title>00102&#45;g2</title>
<text text-anchor="middle" x="297" y="-161.3" font-family="Courier New" font-size="14.00">MAILS</text>
</g>
<!-- 00102&#45;&gt;00102&#45;g2 -->
<g id="edge14" class="edge">
<title>00102&#45;&gt;00102&#45;g2</title>
<path fill="none" stroke="cadetblue" d="M232.32,-165C241.07,-165 249.76,-165 257.79,-165"/>
<polygon fill="cadetblue" stroke="cadetblue" points="267.9,-165 257.9,-169.5 262.9,-165 257.9,-165 257.9,-165 257.9,-165 262.9,-165 257.9,-160.5 267.9,-165 267.9,-165"/>
</g>
<!-- 00102&#45;01000 -->
<g id="node16" class="node">
<title>00102&#45;01000</title>
<polygon fill="#787c7e" stroke="transparent" points="372,-154 372,-176 394,-176 394,-154 372,-154"/>
<text text-anchor="start" x="377" y="-161.3" font-family="Helvetica,sans-Serif" font-size="14.00" fill="white">M</text>
<polygon fill="#c9b458" stroke="transparent" points="396,-154 396,-176 418,-176 418,-154 396,-154"/>
<text text-anchor="start" x="402" y="-161.3" font-family="Helvetica,sans-Serif" font-size="14.00" fill="white">A</text>
<polygon fill="#787c7e" stroke="transparent" points="420,-154 420,-176 442,-176 442,-154 420,-154"/>
<text text-anchor="start" x="428.5" y="-161.3" font-family="Helvetica,sans-Serif" font-size="14.00" fill="white">I</text>
<polygon fill="#787c7e" stroke="transparent" points="444,-154 444,-176 466,-176 466,-154 444,-154"/>
<text text-anchor="start" x="450.5" y="-161.3" font-family="Helvetica,sans-Serif" font-size="14.00" fill="white">L</text>
<polygon fill="#787c7e" stroke="transparent" points="468,-154 468,-176 490,-176 490,-154 468,-154"/>
<text text-anchor="start" x="474" y="-161.3" font-family="Helvetica,sans-Serif" font-size="14.00" fill="white">S</text>
</g>
<!-- 00102&#45;g2&#45;&gt;00102&#45;01000 -->
<g id="edge15" class="edge">
<title>00102&#45;g2&#45;&gt;00102&#45;01000</title>
<path fill="none" stroke="cadetblue" d="M326.32,-165C333.97,-165 342.63,-165 351.62,-165"/>
<polygon fill="cadetblue" stroke="cadetblue" points="361.86,-165 351.86,-169.5 356.86,-165 351.86,-165 351.86,-165 351.86,-165 356.86,-165 351.86,-160.5 361.86,-165 361.86,-165"/>
</g>
<!-- 00102&#45;01000&#45;g3 -->
<g id="node17" class="node">
<title>00102&#45;01000&#45;g3</title>
<text text-anchor="middle" x="565" y="-161.3" font-family="Courier New" font-size="14.00">ABODE</text>
</g>
<!-- 00102&#45;01000&#45;&gt;00102&#45;01000&#45;g3 -->
<g id="edge16" class="edge">
<title>00102&#45;01000&#45;&gt;00102&#45;01000&#45;g3</title>
<path fill="none" stroke="cadetblue" d="M500.32,-165C509.07,-165 517.76,-165 525.79,-165"/>
<polygon fill="cadetblue" stroke="cadetblue" points="535.9,-165 525.9,-169.5 530.9,-165 525.9,-165 525.9,-165 525.9,-165 530.9,-165 525.9,-160.5 535.9,-165 535.9,-165"/>
</g>
<!-- 00102&#45;01000&#45;21212 -->
<g id="node18" class="node">
<title>00102&#45;01000&#45;21212</title>
<polygon fill="#6aaa64" stroke="transparent" points="640,-154 640,-176 662,-176 662,-154 640,-154"/>
<text text-anchor="start" x="646" y="-161.3" font-family="Helvetica,sans-Serif" font-size="14.00" fill="white">A</text>
<polygon fill="#c9b458" stroke="transparent" points="664,-154 664,-176 686,-176 686,-154 664,-154"/>
<text text-anchor="start" x="670" y="-161.3" font-family="Helvetica,sans-Serif" font-size="14.00" fill="white">B</text>
<polygon fill="#6aaa64" stroke="transparent" points="688,-154 688,-176 710,-176 710,-154 688,-154"/>
<text text-anchor="start" x="693" y="-161.3" font-family="Helvetica,sans-Serif" font-size="14.00" fill="white">O</text>
<polygon fill="#c9b458" stroke="transparent" points="712,-154 712,-176 734,-176 734,-154 712,-154"/>
<text text-anchor="start" x="717.5" y="-161.3" font-family="Helvetica,sans-Serif" font-size="14.00" fill="white">D</text>
<polygon fill="#6aaa64" stroke="transparent" points="736,-154 736,-176 758,-176 758,-154 736,-154"/>
<text text-anchor="start" x="742" y="-161.3" font-family="Helvetica,sans-Serif" font-size="14.00" fill="white">E</text>
</g>
<!-- 00102&#45;01000&#45;g3&#45;&gt;00102&#45;01000&#45;21212 -->
<g id="edge17" class="edge">
<title>00102&#45;01000&#45;g3&#45;&gt;00102&#45;01000&#45;21212</title>
<path fill="none" stroke="cadetblue" d="M594.32,-165C601.97,-165 610.63,-165 619.62,-165"/>
<polygon fill="cadetblue" stroke="cadetblue" points="629.86,-165 619.86,-169.5 624.86,-165 619.86,-165 619.86,-165 619.86,-165 624.86,-165 619.86,-160.5 629.86,-165 629.86,-165"/>
</g>
<!-- 00102&#45;01000&#45;21212&#45;g4 -->
<g id="node19" class="node">
<title>00102&#45;01000&#45;21212&#45;g4</title>
<text text-anchor="middle" x="833" y="-161.3" font-family="Courier New" font-size="14.00">ADOBE</text>
</g>
<!-- 00102&#45;01000&#45;21212&#45;&gt;00102&#45;01000&#45;21212&#45;g4 -->
<g id="edge18" class="edge">
<title>00102&#45;01000&#45;21212&#45;&gt;00102&#45;01000&#45;21212&#45;g4</title>
<path fill="none" stroke="cadetblue" d="M768.32,-165C777.07,-165 785.76,-165 793.79,-165"/>
<polygon fill="cadetblue" stroke="cadetblue" points="803.9,-165 793.9,-169.5 798.9,-165 793.9,-165 793.9,-165 793.9,-165 798.9,-165 793.9,-160.5 803.9,-165 803.9,-165"/>
</g>
<!-- 00102&#45;01000&#45;21212&#45;22222 -->
<g id="node20" class="node">
<title>00102&#45;01000&#45;21212&#45;22222</title>
<polygon fill="#6aaa64" stroke="transparent" points="908,-154 908,-176 930,-176 930,-154 908,-154"/>
<text text-anchor="start" x="914" y="-161.3" font-family="Helvetica,sans-Serif" font-size="14.00" fill="white">A</text>
<polygon fill="#6aaa64" stroke="transparent" points="932,-154 932,-176 954,-176 954,-154 932,-154"/>
<text text-anchor="start" x="937.5" y="-161.3" font-family="Helvetica,sans-Serif" font-size="14.00" fill="white">D</text>
<polygon fill="#6aaa64" stroke="transparent" points="956,-154 956,-176 978,-176 978,-154 956,-154"/>
<text text-anchor="start" x="961" y="-161.3" font-family="Helvetica,sans-Serif" font-size="14.00" fill="white">O</text>
<polygon fill="#6aaa64" stroke="transparent" points="980,-154 980,-176 1002,-176 1002,-154 980,-154"/>
<text text-anchor="start" x="986" y="-161.3" font-family="Helvetica,sans-Serif" font-size="14.00" fill="white">B</text>
<polygon fill="#6aaa64" stroke="transparent" points="1004,-154 1004,-176 1026,-176 1026,-154 1004,-154"/>
<text text-anchor="start" x="1010" y="-161.3" font-family="Helvetica,sans-Serif" font-size="14.00" fill="white">E</text>
</g>
<!-- 00102&#45;01000&#45;21212&#45;g4&#45;&gt;00102&#45;01000&#45;21212&#45;22222 -->
<g id="edge19" class="edge">
<title>00102&#45;01000&#45;21212&#45;g4&#45;&gt;00102&#45;01000&#45;21212&#45;22222</title>
<path fill="none" stroke="cadetblue" d="M862.32,-165C869.97,-165 878.63,-165 887.62,-165"/>
<polygon fill="cadetblue" stroke="cadetblue" points="897.86,-165 887.86,-169.5 892.86,-165 887.86,-165 887.86,-165 887.86,-165 892.86,-165 887.86,-160.5 897.86,-165 897.86,-165"/>
</g>
<!-- 00110&#45;11010&#45;g3 -->
<g id="node22" class="node">
<title>00110&#45;11010&#45;g3</title>
<text text-anchor="middle" x="565" y="-215.3" font-family="Courier New" font-size="14.00">ABOUT</text>
</g>
<!-- 00110&#45;11010&#45;&gt;00110&#45;11010&#45;g3 -->
<g id="edge21" class="edge">
<title>00110&#45;11010&#45;&gt;00110&#45;11010&#45;g3</title>
<path fill="none" stroke="cadetblue" d="M500.32,-219C509.07,-219 517.76,-219 525.79,-219"/>
<polygon fill="cadetblue" stroke="cadetblue" points="535.9,-219 525.9,-223.5 530.9,-219 525.9,-219 525.9,-219 525.9,-219 530.9,-219 525.9,-214.5 535.9,-219 535.9,-219"/>
</g>
<!-- 00110&#45;11010&#45;20202 -->
<g id="node23" class="node">
<title>00110&#45;11010&#45;20202</title>
<polygon fill="#6aaa64" stroke="transparent" points="640,-208 640,-230 662,-230 662,-208 640,-208"/>
<text text-anchor="start" x="646" y="-215.3" font-family="Helvetica,sans-Serif" font-size="14.00" fill="white">A</text>
<polygon fill="#787c7e" stroke="transparent" points="664,-208 664,-230 686,-230 686,-208 664,-208"/>
<text text-anchor="start" x="670" y="-215.3" font-family="Helvetica,sans-Serif" font-size="14.00" fill="white">B</text>
<polygon fill="#6aaa64" stroke="transparent" points="688,-208 688,-230 710,-230 710,-208 688,-208"/>
<text text-anchor="start" x="693" y="-215.3" font-family="Helvetica,sans-Serif" font-size="14.00" fill="white">O</text>
<polygon fill="#787c7e" stroke="transparent" points="712,-208 712,-230 734,-230 734,-208 712,-208"/>
<text text-anchor="start" x="718" y="-215.3" font-family="Helvetica,sans-Serif" font-size="14.00" fill="white">U</text>
<polygon fill="#6aaa64" stroke="transparent" points="736,-208 736,-230 758,-230 758,-208 736,-208"/>
<text text-anchor="start" x="742" y="-215.3" font-family="Helvetica,sans-Serif" font-size="14.00" fill="white">T</text>
</g>
<!-- 00110&#45;11010&#45;g3&#45;&gt;00110&#45;11010&#45;20202 -->
<g id="edge22" class="edge">
<title>00110&#45;11010&#45;g3&#45;&gt;00110&#45;11010&#45;20202</title>
<path fill="none" stroke="cadetblue" d="M594.32,-219C601.97,-219 610.63,-219 619.62,-219"/>
<polygon fill="cadetblue" stroke="cadetblue" points="629.86,-219 619.86,-223.5 624.86,-219 619.86,-219 619.86,-219 619.86,-219 624.86,-219 619.86,-214.5 629.86,-219 629.86,-219"/>
</g>
<!-- 00110&#45;11010&#45;20202&#45;g4 -->
<g id="node24" class="node">
<title>00110&#45;11010&#45;20202&#45;g4</title>
<text text-anchor="middle" x="833" y="-215.3" font-family="Courier New" font-size="14.00">ADOPT</text>
</g>
<!-- 00110&#45;11010&#45;20202&#45;&gt;00110&#45;11010&#45;20202&#45;g4 -->
<g id="edge23" class="edge">
<title>00110&#45;11010&#45;20202&#45;&gt;00110&#45;11010&#45;20202&#45;g4</title>
<path fill="none" stroke="cadetblue" d="M768.32,-219C777.07,-219 785.76,-219 793.79,-219"/>
<polygon fill="cadetblue" stroke="cadetblue" points="803.9,-219 793.9,-223.5 798.9,-219 793.9,-219 793.9,-219 793.9,-219 798.9,-219 793.9,-214.5 803.9,-219 803.9,-219"/>
</g>
<!-- 00110&#45;11010&#45;20202&#45;22222 -->
<g id="node25" class="node">
<title>00110&#45;11010&#45;20202&#45;22222</title>
<polygon fill="#6aaa64" stroke="transparent" points="908,-208 908,-230 930,-230 930,-208 908,-208"/>
<text text-anchor="start" x="914" y="-215.3" font-family="Helvetica,sans-Serif" font-size="14.00" fill="white">A</text>
<polygon fill="#6aaa64" stroke="transparent" points="932,-208 932,-230 954,-230 954,-208 932,-208"/>
<text text-anchor="start" x="937.5" y="-215.3" font-family="Helvetica,sans-Serif" font-size="14.00" fill="white">D</text>
<polygon fill="#6aaa64" stroke="transparent" points="956,-208 956,-230 978,-230 978,-208 956,-208"/>
<text text-anchor="start" x="961" y="-215.3" font-family="Helvetica,sans-Serif" font-size="14.00" fill="white">O</text>
<polygon fill="#6aaa64" stroke="transparent" points="980,-208 980,-230 1002,-230 1002,-208 980,-208"/>
<text text-anchor="start" x="986" y="-215.3" font-family="Helvetica,sans-Serif" font-size="14.00" fill="white">P</text>
<polygon fill="#6aaa64" stroke="transparent" points="1004,-208 1004,-230 1026,-230 1026,-208 1004,-208"/>
<text text-anchor="start" x="1010" y="-215.3" font-family="Helvetica,sans-Serif" font-size="14.00" fill="white">T</text>
</g>
<!-- 00110&#45;11010&#45;20202&#45;g4&#45;&gt;00110&#45;11010&#45;20202&#45;22222 -->
<g id="edge24" class="edge">
<title>00110&#45;11010&#45;20202&#45;g4&#45;&gt;00110&#45;11010&#45;20202&#45;22222</title>
<path fill="none" stroke="cadetblue" d="M862.32,-219C869.97,-219 878.63,-219 887.62,-219"/>
<polygon fill="cadetblue" stroke="cadetblue" points="897.86,-219 887.86,-223.5 892.86,-219 887.86,-219 887.86,-219 887.86,-219 892.86,-219 887.86,-214.5 897.86,-219 897.86,-219"/>
</g>
<!-- 01102&#45;g2 -->
<g id="node27" class="node">
<title>01102&#45;g2</title>
<text text-anchor="middle" x="297" y="-107.3" font-family="Courier New" font-size="14.00">ABRIS</text>
</g>
<!-- 01102&#45;&gt;01102&#45;g2 -->
<g id="edge26" class="edge">
<title>01102&#45;&gt;01102&#45;g2</title>
<path fill="none" stroke="cadetblue" d="M232.32,-111C241.07,-111 249.76,-111 257.79,-111"/>
<polygon fill="cadetblue" stroke="cadetblue" points="267.9,-111 257.9,-115.5 262.9,-111 257.9,-111 257.9,-111 257.9,-111 262.9,-111 257.9,-106.5 267.9,-111 267.9,-111"/>
</g>
<!-- 01102&#45;20100 -->
<g id="node28" class="node">
<title>01102&#45;20100</title>
<polygon fill="#6aaa64" stroke="transparent" points="372,-100 372,-122 394,-122 394,-100 372,-100"/>
<text text-anchor="start" x="378" y="-107.3" font-family="Helvetica,sans-Serif" font-size="14.00" fill="white">A</text>
<polygon fill="#787c7e" stroke="transparent" points="396,-100 396,-122 418,-122 418,-100 396,-100"/>
<text text-anchor="start" x="402" y="-107.3" font-family="Helvetica,sans-Serif" font-size="14.00" fill="white">B</text>
<polygon fill="#c9b458" stroke="transparent" points="420,-100 420,-122 442,-122 442,-100 420,-100"/>
<text text-anchor="start" x="425.5" y="-107.3" font-family="Helvetica,sans-Serif" font-size="14.00" fill="white">R</text>
<polygon fill="#787c7e" stroke="transparent" points="444,-100 444,-122 466,-122 466,-100 444,-100"/>
<text text-anchor="start" x="452.5" y="-107.3" font-family="Helvetica,sans-Serif" font-size="14.00" fill="white">I</text>
<polygon fill="#787c7e" stroke="transparent" points="468,-100 468,-122 490,-122 490,-100 468,-100"/>
<text text-anchor="start" x="474" y="-107.3" font-family="Helvetica,sans-Serif" font-size="14.00" fill="white">S</text>
</g>
<!-- 01102&#45;g2&#45;&gt;01102&#45;20100 -->
<g id="edge27" class="edge">
<title>01102&#45;g2&#45;&gt;01102&#45;20100</title>
<path fill="none" stroke="cadetblue" d="M326.32,-111C333.97,-111 342.63,-111 351.62,-111"/>
<polygon fill="cadetblue" stroke="cadetblue" points="361.86,-111 351.86,-115.5 356.86,-111 351.86,-111 351.86,-111 351.86,-111 356.86,-111 351.86,-106.5 361.86,-111 361.86,-111"/>
</g>
<!-- 01102&#45;20100&#45;g3 -->
<g id="node29" class="node">
<title>01102&#45;20100&#45;g3</title>
<text text-anchor="middle" x="565" y="-107.3" font-family="Courier New" font-size="14.00">ADORE</text>
</g>
<!-- 01102&#45;20100&#45;&gt;01102&#45;20100&#45;g3 -->
<g id="edge28" class="edge">
<title>01102&#45;20100&#45;&gt;01102&#45;20100&#45;g3</title>
<path fill="none" stroke="cadetblue" d="M500.32,-111C509.07,-111 517.76,-111 525.79,-111"/>
<polygon fill="cadetblue" stroke="cadetblue" points="535.9,-111 525.9,-115.5 530.9,-111 525.9,-111 525.9,-111 525.9,-111 530.9,-111 525.9,-106.5 535.9,-111 535.9,-111"/>
</g>
<!-- 01102&#45;20100&#45;22222 -->
<g id="node30" class="node">
<title>01102&#45;20100&#45;22222</title>
<polygon fill="#6aaa64" stroke="transparent" points="640,-100 640,-122 662,-122 662,-100 640,-100"/>
<text text-anchor="start" x="646" y="-107.3" font-family="Helvetica,sans-Serif" font-size="14.00" fill="white">A</text>
<polygon fill="#6aaa64" stroke="transparent" points="664,-100 664,-122 686,-122 686,-100 664,-100"/>
<text text-anchor="start" x="669.5" y="-107.3" font-family="Helvetica,sans-Serif" font-size="14.00" fill="white">D</text>
<polygon fill="#6aaa64" stroke="transparent" points="688,-100 688,-122 710,-122 710,-100 688,-100"/>
<text text-anchor="start" x="693" y="-107.3" font-family="Helvetica,sans-Serif" font-size="14.00" fill="white">O</text>
<polygon fill="#6aaa64" stroke="transparent" points="712,-100 712,-122 734,-122 734,-100 712,-100"/>
<text text-anchor="start" x="717.5" y="-107.3" font-family="Helvetica,sans-Serif" font-size="14.00" fill="white">R</text>
<polygon fill="#6aaa64" stroke="transparent" points="736,-100 736,-122 758,-122 758,-100 736,-100"/>
<text text-anchor="start" x="742" y="-107.3" font-family="Helvetica,sans-Serif" font-size="14.00" fill="white">E</text>
</g>
<!-- 01102&#45;20100&#45;g3&#45;&gt;01102&#45;20100&#45;22222 -->
<g id="edge29" class="edge">
<title>01102&#45;20100&#45;g3&#45;&gt;01102&#45;20100&#45;22222</title>
<path fill="none" stroke="cadetblue" d="M594.32,-111C601.97,-111 610.63,-111 619.62,-111"/>
<polygon fill="cadetblue" stroke="cadetblue" points="629.86,-111 619.86,-115.5 624.86,-111 619.86,-111 619.86,-111 619.86,-111 624.86,-111 619.86,-106.5 629.86,-111 629.86,-111"/>
</g>
<!-- 01100&#45;g2 -->
<g id="node32" class="node">
<title>01100&#45;g2</title>
<text text-anchor="middle" x="297" y="-53.3" font-family="Courier New" font-size="14.00">LORRY</text>
</g>
<!-- 01100&#45;&gt;01100&#45;g2 -->
<g id="edge31" class="edge">
<title>01100&#45;&gt;01100&#45;g2</title>
<path fill="none" stroke="cadetblue" d="M232.32,-57C241.07,-57 249.76,-57 257.79,-57"/>
<polygon fill="cadetblue" stroke="cadetblue" points="267.9,-57 257.9,-61.5 262.9,-57 257.9,-57 257.9,-57 257.9,-57 262.9,-57 257.9,-52.5 267.9,-57 267.9,-57"/>
</g>
<!-- 01100&#45;01020 -->
<g id="node33" class="node">
<title>01100&#45;01020</title>
<polygon fill="#787c7e" stroke="transparent" points="372,-46 372,-68 394,-68 394,-46 372,-46"/>
<text text-anchor="start" x="378.5" y="-53.3" font-family="Helvetica,sans-Serif" font-size="14.00" fill="white">L</text>
<polygon fill="#c9b458" stroke="transparent" points="396,-46 396,-68 418,-68 418,-46 396,-46"/>
<text text-anchor="start" x="401" y="-53.3" font-family="Helvetica,sans-Serif" font-size="14.00" fill="white">O</text>
<polygon fill="#787c7e" stroke="transparent" points="420,-46 420,-68 442,-68 442,-46 420,-46"/>
<text text-anchor="start" x="425.5" y="-53.3" font-family="Helvetica,sans-Serif" font-size="14.00" fill="white">R</text>
<polygon fill="#6aaa64" stroke="transparent" points="444,-46 444,-68 466,-68 466,-46 444,-46"/>
<text text-anchor="start" x="449.5" y="-53.3" font-family="Helvetica,sans-Serif" font-size="14.00" fill="white">R</text>
<polygon fill="#787c7e" stroke="transparent" points="468,-46 468,-68 490,-68 490,-46 468,-46"/>
<text text-anchor="start" x="474" y="-53.3" font-family="Helvetica,sans-Serif" font-size="14.00" fill="white">Y</text>
</g>
<!-- 01100&#45;g2&#45;&gt;01100&#45;01020 -->
<g id="edge32" class="edge">
<title>01100&#45;g2&#45;&gt;01100&#45;01020</title>
<path fill="none" stroke="cadetblue" d="M326.32,-57C333.97,-57 342.63,-57 351.62,-57"/>
<polygon fill="cadetblue" stroke="cadetblue" points="361.86,-57 351.86,-61.5 356.86,-57 351.86,-57 351.86,-57 351.86,-57 356.86,-57 351.86,-52.5 361.86,-57 361.86,-57"/>
</g>
<!-- 01100&#45;01020&#45;g3 -->
<g id="node34" class="node">
<title>01100&#45;01020&#45;g3</title>
<text text-anchor="middle" x="565" y="-53.3" font-family="Courier New" font-size="14.00">ADORN</text>
</g>
<!-- 01100&#45;01020&#45;&gt;01100&#45;01020&#45;g3 -->
<g id="edge33" class="edge">
<title>01100&#45;01020&#45;&gt;01100&#45;01020&#45;g3</title>
<path fill="none" stroke="cadetblue" d="M500.32,-57C509.07,-57 517.76,-57 525.79,-57"/>
<polygon fill="cadetblue" stroke="cadetblue" points="535.9,-57 525.9,-61.5 530.9,-57 525.9,-57 525.9,-57 525.9,-57 530.9,-57 525.9,-52.5 535.9,-57 535.9,-57"/>
</g>
<!-- 01100&#45;01020&#45;22222 -->
<g id="node35" class="node">
<title>01100&#45;01020&#45;22222</title>
<polygon fill="#6aaa64" stroke="transparent" points="640,-46 640,-68 662,-68 662,-46 640,-46"/>
<text text-anchor="start" x="646" y="-53.3" font-family="Helvetica,sans-Serif" font-size="14.00" fill="white">A</text>
<polygon fill="#6aaa64" stroke="transparent" points="664,-46 664,-68 686,-68 686,-46 664,-46"/>
<text text-anchor="start" x="669.5" y="-53.3" font-family="Helvetica,sans-Serif" font-size="14.00" fill="white">D</text>
<polygon fill="#6aaa64" stroke="transparent" points="688,-46 688,-68 710,-68 710,-46 688,-46"/>
<text text-anchor="start" x="693" y="-53.3" font-family="Helvetica,sans-Serif" font-size="14.00" fill="white">O</text>
<polygon fill="#6aaa64" stroke="transparent" points="712,-46 712,-68 734,-68 734,-46 712,-46"/>
<text text-anchor="start" x="717.5" y="-53.3" font-family="Helvetica,sans-Serif" font-size="14.00" fill="white">R</text>
<polygon fill="#6aaa64" stroke="transparent" points="736,-46 736,-68 758,-68 758,-46 736,-46"/>
<text text-anchor="start" x="742" y="-53.3" font-family="Helvetica,sans-Serif" font-size="14.00" fill="white">N</text>
</g>
<!-- 01100&#45;01020&#45;g3&#45;&gt;01100&#45;01020&#45;22222 -->
<g id="edge34" class="edge">
<title>01100&#45;01020&#45;g3&#45;&gt;01100&#45;01020&#45;22222</title>
<path fill="none" stroke="cadetblue" d="M594.32,-57C601.97,-57 610.63,-57 619.62,-57"/>
<polygon fill="cadetblue" stroke="cadetblue" points="629.86,-57 619.86,-61.5 624.86,-57 619.86,-57 619.86,-57 619.86,-57 624.86,-57 619.86,-52.5 629.86,-57 629.86,-57"/>
</g>
</g>
</svg>
